<?xml version="1.0" encoding="utf-8"?>
<!-- Generator: Adobe Illustrator 14.0.0, SVG Export Plug-In  -->
<!DOCTYPE svg PUBLIC "-//W3C//DTD SVG 1.1//EN" "http://www.w3.org/Graphics/SVG/1.1/DTD/svg11.dtd" [
	<!ENTITY ns_flows "http://ns.adobe.com/Flows/1.0/">
]>
<svg version="1.1"
	 xmlns="http://www.w3.org/2000/svg" xmlns:xlink="http://www.w3.org/1999/xlink" xmlns:a="http://ns.adobe.com/AdobeSVGViewerExtensions/3.0/"
	 x="0px" y="0px" width="110px" height="44px" viewBox="0 0 110 44" enable-background="new 0 0 110 44" xml:space="preserve">
<defs>
</defs>
<path fill="#EB7723" d="M15.606,12.898C6.987,12.898,0,19.886,0,28.504C0,37.123,6.987,44.11,15.606,44.11
	s15.606-6.987,15.606-15.606C31.212,19.886,24.225,12.898,15.606,12.898z M15.606,35.44c-3.824,0-6.936-3.112-6.936-6.937
	s3.112-6.936,6.936-6.936s6.936,3.111,6.936,6.936S19.43,35.44,15.606,35.44z"/>
<path fill="#F9A11E" d="M9.564,11.716c-0.151,0.05-0.387,0.119-0.626,0.119c-0.708,0-1.317-0.424-1.586-1.032l0,0L4.575,4.848
	l0.03,0.065C4.488,4.68,4.423,4.417,4.423,4.138c0-0.658,0.381-1.25,0.959-1.552C8.446,1.004,11.921,0.11,15.606,0.11
	c12.33,0,22.325,9.995,22.325,22.325c0,6.562-2.832,12.465-7.341,16.55l-0.002,0.003c-0.052,0.042-0.094,0.062-0.153,0.062
	c-0.12,0-0.217-0.097-0.217-0.216c0-0.059,0.014-0.109,0.041-0.156c2.009-2.886,3.188-6.392,3.188-10.175
	c0-9.853-7.988-17.841-17.841-17.841C13.484,10.663,11.451,11.035,9.564,11.716"/>
<path fill="#202020" d="M59.723,20.332v-0.323c0-0.941-0.353-1.646-3.116-1.646c-1.382,0-2.5,0.176-3,0.265
	c-1.529,0.235-1.852-0.177-2.117-1.646l-0.059-0.324c-0.059-0.382-0.118-0.706-0.118-0.97c0-0.882,0.441-1.176,1.764-1.44
	c1.353-0.265,3.881-0.353,5.293-0.353c5.468,0,7.174,1.323,7.232,5.91v7.116c0,1.617-0.295,2.087-2.029,2.527
	c-0.559,0.148-2.734,0.618-5.381,0.618c-3.939,0-7.703-1.059-7.703-4.91v-0.765c0-2.999,2.117-4.616,5.704-4.616
	C57.459,19.773,58.488,19.979,59.723,20.332z M56.665,24.83c0,0.823,0.617,1.323,1.94,1.323c0.441,0,0.823-0.06,1.117-0.118v-1.91
	c-0.471-0.354-1.088-0.441-1.559-0.441c-1.028,0-1.499,0.412-1.499,1.029V24.83z"/>
<path fill="#202020" d="M84.119,21.155v0.471c0,6.615-4.439,8.438-9.232,8.438c-2.029,0-4.264-0.323-5.322-0.618
	c-1.088-0.322-1.734-0.881-1.734-2.234V9.629c0-1.235,0.529-1.764,1.764-1.764h2.353c1.235,0,1.765,0.529,1.765,1.764v5.41
	c1.676-0.911,2.999-1.146,4.175-1.146C81.768,13.893,84.119,16.509,84.119,21.155z M77.944,21.478c0-1.793-0.765-2.793-2.411-2.793
	c-0.559,0-1.264,0.118-1.822,0.441v6.292c0.5,0.118,0.911,0.146,1.176,0.146c1.676,0,3.058-1.146,3.058-3.674V21.478z"/>
<path fill="#202020" d="M93.77,27.623c0.059,1.441-0.293,1.734-1.529,1.971c-0.47,0.088-1.176,0.176-1.881,0.176
	c-2.734,0-4.322-1.234-4.322-5.498V9.923c0-1.44,0.617-2.058,2.059-2.058h1.764c1.44,0,2.058,0.618,2.058,2.058v14.319
	c0,0.823,0.089,1.029,0.53,1.029h0.264c0.794,0,1,0.734,1.029,1.646L93.77,27.623z"/>
<path fill="#202020" d="M102.443,24.807c1.117-2.353,1.971-5.116,1.971-8.204V16.25c0-1.44,0.617-2.058,2.058-2.058h1.47
	c1.441,0,2.059,0.618,2.059,2.058v0.382c0,7.879-3.705,12.29-9.145,19.023c-0.323,0.44-0.705,0.705-1.176,0.705
	s-0.823-0.205-1.293-0.588l-1.029-0.823c-0.706-0.559-1-1.058-1-1.499c0-0.324,0.146-0.617,0.441-0.912
	c0.705-0.734,1.705-1.793,2.527-2.822c-1.352-1.822-4.351-8.35-5.321-13.584c-0.265-1.411-0.028-1.94,1.853-1.94h2.293
	c1.559,0,1.765,1.146,1.912,2.029c0.617,3.558,2.058,7.88,2.058,7.85L102.443,24.807z"/>
<rect id="_x3C_Slice_x3E__1_" fill="none" width="110" height="44"/>
</svg>
